<?xml version="1.0" encoding="UTF-8"?>
<svg xmlns="http://www.w3.org/2000/svg" width="17.639999389648438" height="24.0" viewBox="222.60209030431787 767.9999992847453 17.639999389648438 24.0" preserveAspectRatio="none">
  <g>
    <defs>
      <path id="s-Path_4-a9043" d="M229.51624495214625 775.5134058478889 L229.51624495214625 775.5134058478889 C229.33942395760806 775.34168524219 229.05735236630304 775.34168524219 228.88053133161495 775.5134058478889 L226.998650629305 777.3450923606651 L226.21558617330012 776.5846153424382 C226.1313856958868 776.5028436217252 226.01771505940877 776.4578691792323 225.89983438299998 776.4578691792323 C225.7819537065912 776.4578691792323 225.66828307011303 776.5028436265992 225.58408259269962 776.5846153424382 C225.49988211528625 776.666387063151 225.4535718567238 776.7767788783151 225.4535718567238 776.8912592951117 C225.4535718567238 777.0057397021601 225.49988212030496 777.1161315270722 225.58408259269962 777.1979032477851 L226.68289883900462 778.2650242186857 C226.76709931641807 778.3467959393986 226.88076995289623 778.3917703818915 226.998650629305 778.3917703818915 C227.11653129567625 778.3917703818915 227.23020194219185 778.3467959345246 227.318612439461 778.2650242186857 L229.52045489170206 776.1266937532359 C229.68885618780322 775.96315031181 229.68885618780322 775.6851263366123 229.51624495214625 775.5134058478889 Z "></path>
      <path id="s-Path_5-a9043" d="M229.51624495214625 780.1287904688965 L229.51624495214625 780.1287904688965 C229.33942395760806 779.9570698631976 229.05735236630304 779.9570698631976 228.88053133161495 780.1287904688965 L226.998650629305 781.9604769816726 L226.21558617330012 781.1999999634457 C226.12717567603113 781.1141396605964 226.01350501947812 781.0732538002399 225.89983438299998 781.0732538002399 C225.78616373648435 781.0732538002399 225.66828307011303 781.1141396605964 225.58408259269962 781.1999999634457 C225.49988211528625 781.2817716841587 225.4535718567238 781.3921634993228 225.4535718567238 781.5066439161193 C225.4535718567238 781.6211243231678 225.49988212030496 781.7315161480797 225.58408259269962 781.8132878687927 L226.68289883900462 782.8804088396932 C226.76709931641807 782.9621805604061 226.88076995289623 783.007155002899 226.998650629305 783.007155002899 C227.11653129567625 783.007155002899 227.23020194219185 782.9621805555321 227.318612439461 782.8804088396932 L229.52045489170206 780.7420783742434 C229.68885618780322 780.5744460972346 229.68885618780322 780.3005115814885 229.51624495214625 780.1287904688965 Z "></path>
      <path id="s-Path_6-a9043" d="M235.50969978834598 775.3846153936146 L231.64489774659012 775.3846153936146 C231.37545621485174 775.3846153936146 231.1565349615318 775.5972218596698 231.1565349615318 775.8588913893465 C231.1565349615318 776.1205609190229 231.37545619477675 776.3331673850782 231.64489774659012 776.3331673850782 L235.50969978834598 776.3331673850782 C235.77914132008408 776.3331673850782 235.99806257340384 776.1205609190229 235.99806257340384 775.8588913893465 C235.99806257340384 775.5972218596698 235.77914105910963 775.3846153936146 235.50969978834598 775.3846153936146 Z "></path>
      <path id="s-Path_7-a9043" d="M229.51834996207458 784.7441750899059 C229.34152896753642 784.5724544842069 229.0594573762314 784.5724544842069 228.8826363415433 784.7441750899059 L227.00075563923326 786.5758616026817 L226.21769118322848 785.8153845844547 C226.13349070581506 785.7336128637418 226.01982006933687 785.6886384212488 225.90193939292814 785.6886384212488 C225.78405871651933 785.6886384212488 225.67038808004116 785.7336128686158 225.58618760262777 785.8153845844547 C225.40936660808956 785.9871051901536 225.40936660808956 786.2610404467436 225.58618760262777 786.432761091434 L226.68500384893298 787.4998820623344 C226.76920432634637 787.5816537830474 226.88287496282453 787.6266282255403 227.00075563923326 787.6266282255403 C227.11863630560458 787.6266282255403 227.2323069521202 787.5816537781734 227.32071744938932 787.4998820623344 L229.52255990163044 785.361551596885 C229.69096119773158 785.1898307182437 229.69096119773158 784.9118073669147 229.51834996207458 784.7441750899059 Z "></path>
      <path id="s-Path_20-a9043" d="M235.50969978834615 785.5384615598324 L231.64489774659006 785.5384615598324 C231.37545621485185 785.5384615598324 231.15653496153192 785.7510680258877 231.15653496153192 786.0127375555642 C231.15653496153192 786.2744070657448 231.3754561947768 786.4870135512961 231.64489774659006 786.4870135512961 L235.50969978834615 786.4870135512961 C235.77914132008414 786.4870135512961 235.998062573404 786.2744070852407 235.998062573404 786.0127375555642 C235.99806281430352 785.7510685327811 235.77914105910975 785.5384615598324 235.50969978834615 785.5384615598324 Z "></path>
      <path id="s-Path_23-a9043" d="M236.52010487490884 780.9230769388242 L231.64489774659 780.9230769388242 C231.37545621485214 780.9230769388242 231.15653496153226 781.1356834048795 231.15653496153226 781.397352934556 C231.15653496153226 781.6590224447366 231.3754561947772 781.8716289302877 231.64489774659 781.8716289302877 L236.52010551730734 781.8716289302877 C236.78954704904544 781.8716289302877 237.0084683023652 781.6590224642325 237.0084683023652 781.397352934556 C237.0084679008661 781.139772747356 236.78954614567215 780.9230769388242 236.52010487490884 780.9230769388242 Z "></path>
      <path id="s-Path_24-a9043" d="M240.24209032242976 771.8228279140865 C240.24209032242976 771.1563884214696 239.68636717953115 770.6166950335709 239.0001332805818 770.6166950335709 L236.20046740658552 770.6166950335709 L236.20046740658552 769.8603066169762 C236.20046740658552 769.5577512464392 235.9436559544896 769.308347502164 235.6321141840449 769.308347502164 L233.25345069711574 769.308347502164 L233.22819055288795 769.2388415376084 C232.95453900129434 768.4988074495598 232.230414863419 768.000000000001 231.4220902481302 768.000000000001 C230.61376563284142 768.000000000001 229.88543153533527 768.4988074885515 229.61598994337243 769.2388415376084 L229.59072979914464 769.308347502164 L227.2120664427027 769.308347502164 C226.9005246722581 769.308347502164 226.6437132201621 769.5577512464392 226.6437132201621 769.8603066169762 L226.6437132201621 770.6166950335709 L223.84404734616584 770.6166950335709 C223.1578134873664 770.6166950335709 222.60209030431787 771.1563883824778 222.60209030431787 771.8228279140865 L222.60209030431787 790.7938671194856 C222.60209030431787 791.4603066121025 223.15781344721648 792.0000000000013 223.84404734616584 792.0000000000013 L239.0001332805818 792.0000000000013 C239.68636713938122 792.0000000000013 240.24209032242976 791.4603066510942 240.24209032242976 790.7938671194856 L240.24209032242976 771.8228279140865 Z M227.7804196652433 770.4122657317885 L230.07488267475907 770.4122657317885 C230.38642444520372 770.4122657317885 230.6432358972997 770.1628619875132 230.6432358972997 769.8603066169762 C230.6432358972997 769.4432708491387 230.99266788659537 769.1039182003817 231.42209031337381 769.1039182003817 C231.85151274015226 769.1039182003817 232.20094472944794 769.4432708491387 232.20094472944794 769.8603066169762 C232.20094472944794 770.1628619875132 232.4577561815439 770.4122657317885 232.76929795198856 770.4122657317885 L235.06376096150433 770.4122657317885 L235.06376096150433 771.9250425649776 L227.7804196652433 771.9250425649776 L227.7804196652433 770.4122657317885 Z M239.10538387734857 790.8960817703768 L223.73879674939906 790.8960817703768 L223.73879674939906 771.7206132631953 L226.6437132201621 771.7206132631953 L226.6437132201621 772.47700167979 C226.6437132201621 772.779557050327 226.9005246722581 773.0289607946022 227.2120664427027 773.0289607946022 L235.6321141840449 773.0289607946022 C235.9436559544896 773.0289607946022 236.20046740658552 772.779557050327 236.20046740658552 772.47700167979 L236.20046740658552 771.7206132631953 L239.10538387734857 771.7206132631953 L239.10538387734857 790.8960817703768 Z "></path>
    </defs>
    <g style="mix-blend-mode:normal">
      <use xmlns:xlink="http://www.w3.org/1999/xlink" xlink:href="#s-Path_4-a9043" fill="#000000" fill-opacity="1.0"></use>
    </g>
    <g style="mix-blend-mode:normal">
      <use xmlns:xlink="http://www.w3.org/1999/xlink" xlink:href="#s-Path_5-a9043" fill="#000000" fill-opacity="1.0"></use>
    </g>
    <g style="mix-blend-mode:normal">
      <use xmlns:xlink="http://www.w3.org/1999/xlink" xlink:href="#s-Path_6-a9043" fill="#000000" fill-opacity="1.0"></use>
    </g>
    <g style="mix-blend-mode:normal">
      <use xmlns:xlink="http://www.w3.org/1999/xlink" xlink:href="#s-Path_7-a9043" fill="#000000" fill-opacity="1.0"></use>
    </g>
    <g style="mix-blend-mode:normal">
      <use xmlns:xlink="http://www.w3.org/1999/xlink" xlink:href="#s-Path_20-a9043" fill="#000000" fill-opacity="1.0"></use>
    </g>
    <g style="mix-blend-mode:normal">
      <use xmlns:xlink="http://www.w3.org/1999/xlink" xlink:href="#s-Path_23-a9043" fill="#000000" fill-opacity="1.0"></use>
    </g>
    <g style="mix-blend-mode:normal">
      <use xmlns:xlink="http://www.w3.org/1999/xlink" xlink:href="#s-Path_24-a9043" fill="#000000" fill-opacity="1.0"></use>
    </g>
  </g>
</svg>
