<?xml version="1.0" encoding="UTF-8"?>
<svg xmlns="http://www.w3.org/2000/svg" width="119.99999974961429" height="120.00245582698597" viewBox="127.00000000000136 200.0000000000001 119.99999974961429 120.00245582698597" preserveAspectRatio="none">
  <g>
    <defs>
      <ellipse cx="186.9999998748085" cy="260.0012279134931" rx="57.499999874807145" ry="57.50122791349298" id="s-Ellipse_1-84825-path"></ellipse>
      <path id="s-Path_23-84825" d="M167.5308443193826 261.9228301571075 C167.20229150978363 261.5942706229159 167.03801509274462 261.1014313338682 167.03801509274462 260.7728718241562 C167.03801509274462 260.4443123144442 167.20229149754408 259.95147300091696 167.5308443193826 259.62291349120494 L169.83071391313803 257.32299682530237 C170.48781953233595 256.6658777569191 171.47347793665372 256.6658777569191 172.13058350689346 257.32299682530237 L172.29485991169295 257.4872765923982 L181.3300620410293 267.17978286329077 C181.65861485062825 267.5083423974824 182.15144405278716 267.5083423974824 182.479996837907 267.17978286329077 L204.49303412635265 244.34489620391702 L204.65731053115212 244.34489620391702 L204.65731053115212 244.344896203917 C205.31441615035004 243.68777713553376 206.30007455466782 243.68777713553376 206.95718012490755 244.344896203917 L209.25704971866298 246.6448128698196 C209.9141553378609 247.3019319382028 209.9141553378609 248.2876105162981 209.25704971866298 248.94472953572216 L209.25704971866298 248.94472953572216 L182.9728253424118 276.21517109394307 C182.64427253281283 276.54373062813465 182.31571972321387 276.7080104074703 181.82289054553408 276.7080104074703 C181.3300613188961 276.7080104074703 181.00150853377622 276.54373064037446 180.67295574865636 276.21517109394307 L167.85939605190154 262.41567149020113 L167.53084324230258 261.92283217667386 Z "></path>
    </defs>
    <g style="mix-blend-mode:normal">
      <use xmlns:xlink="http://www.w3.org/1999/xlink" xlink:href="#s-Ellipse_1-84825-path" fill="#10CA88" fill-opacity="1.0" stroke-width="5.0" stroke="#FFFFFF"></use>
    </g>
    <g style="mix-blend-mode:normal">
      <use xmlns:xlink="http://www.w3.org/1999/xlink" xlink:href="#s-Path_23-84825" fill="#FFFFFF" fill-opacity="1.0"></use>
    </g>
  </g>
</svg>
