<?xml version="1.0" encoding="UTF-8"?>
<svg xmlns="http://www.w3.org/2000/svg" width="23.74604034423828" height="23.15999588349851" viewBox="41.14525460285688 130.61150741577194 23.74604034423828 23.15999588349851" preserveAspectRatio="none">
  <g>
    <defs>
      <path id="s-Path_32-2a234" d="M63.96236249485901 132.69196242885732 L49.81500999342249 132.69196242885732 C49.42606166712558 131.48414432177748 48.33340233811728 130.6115112304692 47.04871488171017 130.6115112304692 C45.76402742530304 130.6115112304692 44.67136821440653 131.4841443835231 44.28241976999786 132.69196242885732 L42.07412719114001 132.69196242885732 C41.56114390521374 132.69196242885732 41.145258417554146 133.12678988558915 41.145258417554146 133.66313749931265 C41.145258417554146 134.1994851130362 41.56114393474172 134.634312569768 42.07412719114001 134.634312569768 L44.282481660566575 134.634312569768 C44.67142998686347 135.84213067684783 45.76408931587177 136.7147637681561 47.048776772278885 136.7147637681561 C48.33346422868598 136.7147637681561 49.426123439582526 135.84213061510218 49.815071883991195 134.634312569768 L63.96242438542767 134.634312569768 C64.47540767135395 134.634312569768 64.89129315901351 134.1994851130362 64.89129315901351 133.66313749931265 C64.89129315901351 133.12678988558915 64.475407641826 132.69196242885732 63.96236243580309 132.69196242885732 Z M47.04871511793371 134.77241362724538 C46.46371359220373 134.77241362724538 45.98776124064996 134.27478352954148 45.98776124064996 133.66313749931265 C45.98776124064996 133.05149146908383 46.46371359220373 132.55386137137992 47.04871511793371 132.55386137137992 C47.63371664366372 132.55386137137992 48.10966899521746 133.05149146908383 48.10966899521746 133.66313749931265 C48.10966899521746 134.27478352954148 47.63371664366372 134.77241362724538 47.04871511793371 134.77241362724538 Z "></path>
      <path id="s-Path_33-2a234" d="M63.96236249485901 141.22033607251066 L61.7540080254324 141.22033607251066 C61.365059699135514 140.01251796543073 60.2723384795585 139.13988487412254 58.9877129137201 139.13988487412254 C57.703087347881706 139.13988487412254 56.61042813698518 140.01251802717647 56.22147969257652 141.22033607251066 L42.07412719114001 141.22033607251066 C41.56114390521374 141.22033607251066 41.145258417554146 141.65516352924251 41.145258417554146 142.1915111429661 C41.145258417554146 142.72785875668956 41.56114393474172 143.1626862134214 42.07412719114001 143.1626862134214 L56.22147969257652 143.1626862134214 C56.610428018873435 144.3705043205013 57.70314923845041 145.24313741180967 58.98777480428882 145.24313741180967 C60.2724003701272 145.24313741180967 61.36512147159246 144.3705042587557 61.75406991600113 143.1626862134214 L63.96242438542767 143.1626862134214 C64.47540767135395 143.1626862134214 64.89129315901351 142.72785875668956 64.89129315901351 142.1915111429661 C64.89129315901351 141.65516352924251 64.475407641826 141.22033607251066 63.96236243580309 141.22033607251066 Z M58.98777480428882 143.30078727089884 C58.40277327855884 143.30078727089884 57.92682092700505 142.80315717319488 57.92682092700505 142.1915111429661 C57.92682092700505 141.57986511273714 58.40277327855884 141.08223501503326 58.98777480428882 141.08223501503326 C59.5727763300188 141.08223501503326 60.048728681572584 141.57986511273714 60.048728681572584 142.1915111429661 C60.048728681572584 142.80315717319488 59.5727763300188 143.30078727089884 58.98777480428882 143.30078727089884 Z "></path>
      <path id="s-Path_34-2a234" d="M63.962362731082635 149.74870971616443 L53.79471742195413 149.74870971616443 C53.40576909565725 148.54089160908458 52.31310976664898 147.6682585177763 51.02842231024188 147.6682585177763 C49.743734853834766 147.6682585177763 48.65107564293824 148.54089167083035 48.26212719852957 149.74870971616443 L42.074127191140335 149.74870971616443 C41.561143905214024 149.74870971616443 41.14525841755449 150.18353717289628 41.14525841755449 150.71988478661987 C41.14525841755449 151.25623240034335 41.56114393474199 151.6910598570755 42.074127191140335 151.6910598570755 L48.26212719852957 151.6910598570755 C48.65107552482647 152.89887796415533 49.743734853834766 153.77151105546355 51.02842231024188 153.77151105546355 C52.31310976664898 153.77151105546355 53.40576897754552 152.8988779024095 53.79471742195413 151.6910598570755 L63.962425094098435 151.6910598570755 C64.47540838002466 151.6910598570755 64.89129386768428 151.25623240034335 64.89129386768428 150.71988478661987 C64.89129386768428 150.18353717289628 64.47540835049672 149.74870971616443 63.96236314447383 149.74870971616443 Z M51.02842254646542 151.8292256239919 C50.44342102073544 151.8292256239919 49.96746866918163 151.33159552628783 49.96746866918163 150.719949496059 C49.96746866918163 150.10830346583018 50.44342102073544 149.6106733681262 51.02842254646542 149.6106733681262 C51.613424072195414 149.6106733681262 52.08937642374919 150.1082387255182 52.08937642374919 150.71988478661987 C52.08937642374919 151.3315308477215 51.613424072195414 151.82922574748332 51.02842254646542 151.82922574748332 Z "></path>
    </defs>
    <g style="mix-blend-mode:normal">
      <use xmlns:xlink="http://www.w3.org/1999/xlink" xlink:href="#s-Path_32-2a234" fill="#000000" fill-opacity="1.0"></use>
    </g>
    <g style="mix-blend-mode:normal">
      <use xmlns:xlink="http://www.w3.org/1999/xlink" xlink:href="#s-Path_33-2a234" fill="#000000" fill-opacity="1.0"></use>
    </g>
    <g style="mix-blend-mode:normal">
      <use xmlns:xlink="http://www.w3.org/1999/xlink" xlink:href="#s-Path_34-2a234" fill="#000000" fill-opacity="1.0"></use>
    </g>
  </g>
</svg>
