<?xml version="1.0" encoding="UTF-8"?>
<svg xmlns="http://www.w3.org/2000/svg" width="23.399999618530273" height="24.5" viewBox="42.654998779296875 768.0839843750002 23.399999618530273 24.5" preserveAspectRatio="none">
  <g>
    <defs>
      <path id="s-Path_2-a9043" d="M51.2279354099179 789.9825269698413 L51.2279354099179 786.6091213223921 C51.22791600264556 785.7510880467443 51.9274280552171 785.0538949009568 52.79411277816152 785.0481356617598 L55.96879634918461 785.0481356617598 C56.83961639470003 785.0481356617598 57.54555540154132 785.7470125195529 57.54555540154132 786.6091213223921 L57.54555540154132 786.6091213223921 L57.54555540154132 789.9930027007379 C57.54535398552568 790.721505546539 58.13267993999277 791.3169101715082 58.86834039764123 791.3339843750002 L60.98479681101779 791.3339843750002 C63.09463691808907 791.3339843750002 64.80499878035857 789.6407323836422 64.80499878035857 787.551997947501 L64.80499878035857 787.551997947501 L64.80499878035857 777.9556032173992 C64.79373207198398 777.1338940613211 64.40402145489875 776.3622682563808 63.746771622712046 775.8603201381454 L56.508492661162705 770.0878156770406 C55.240426731685446 769.0827072892213 53.43782367754724 769.0827072892213 52.16975827259086 770.0878156770406 L44.963226658159606 775.8707963935628 C44.30348325373767 776.3707093708069 43.913124137791286 777.1436171047634 43.904998779296875 777.9660794728167 L43.904998779296875 787.551997947501 C43.904998779296875 789.6407323836422 45.615361690608125 791.3339843750002 47.72520127315854 791.3339843750002 L49.84165716201422 791.3339843750002 C50.59558877978934 791.3339843750002 51.20677099264998 790.7289159774475 51.20677099264998 789.9825269698413 L51.20677099264998 789.9825269698413 "></path>
    </defs>
    <g style="mix-blend-mode:normal">
      <use xmlns:xlink="http://www.w3.org/1999/xlink" xlink:href="#s-Path_2-a9043" fill="none" stroke-width="1.5" stroke="#000000" stroke-linecap="round" stroke-linejoin="round"></use>
    </g>
  </g>
</svg>
