<?xml version="1.0" encoding="UTF-8"?>
<svg xmlns="http://www.w3.org/2000/svg" width="23.797744750976562" height="23.70123863220215" viewBox="137.59725046433655 768.4533519937153 23.797744750976562 23.70123863220215" preserveAspectRatio="none">
  <g>
    <defs>
      <path id="s-Path_3-a9043" d="M149.4980266351156 768.4533519439477 C152.67904097736812 768.4533519439477 155.66850762686443 769.6850576653391 157.91392926706203 771.9224174573371 C162.55535485748672 776.5448976852321 162.55535485748672 784.0652495016859 157.91392926706203 788.6877289408749 C155.6386124852065 790.9548610683568 152.57496339427067 792.1545900976786 149.47145341051248 792.1545900976786 C147.77963674451482 792.1545900976786 146.07674825357176 791.7984210021772 144.48347299421945 791.0640284893141 C144.01401621262343 790.8765709599335 143.57445351676765 790.7001405914831 143.2588988504205 790.7001405914831 C142.89573391131924 790.7023447617396 142.40745434096954 790.8699542427322 141.9357830359968 791.0320490916519 C140.9680814608455 791.3628576099082 139.76343710350918 791.7752624919727 138.87213302113298 790.8909064794643 C137.98415069082446 790.0054441753957 138.39381834401462 788.8090256078905 138.72376695034654 787.8463752805269 C138.8865267631332 787.3722199798265 139.05371549068363 786.8826249712511 139.05371549068363 786.5121203562188 C139.05371549068363 786.2077766035516 138.90645654959582 785.8196302136039 138.68058572434592 785.2605659840629 C136.60678152847788 780.8001813937935 137.56562531534846 775.4245634784818 141.0832313968472 771.9235200682693 C143.32865330102425 769.6861602762713 146.3170128208219 768.4533519439477 149.4980266351156 768.4533519439477 Z M149.49913429277308 770.1073882804603 C146.76100350751346 770.1073882804603 144.18895537602327 771.1681768960862 142.25687361481667 773.0934751846953 C139.22976191577183 776.1060264601665 138.40599769462779 780.7318142579562 140.20521392677256 784.6055677679673 C140.46430101879696 785.2440252426677 140.71453028129383 785.8659430275809 140.71453028129383 786.5121203562188 C140.71453028129383 787.1571934965126 140.49198110911928 787.8066791837512 140.29600516154787 788.3800789328229 C140.13435234647017 788.852030063267 139.88965899644597 789.5643682542698 140.04688276477023 789.7209505743323 C140.20078488001909 789.8797370646513 140.9204714520708 789.6294270315065 141.39546441011896 789.4673321825868 C141.9656776496959 789.273257936005 142.61228811806848 789.0505147535775 143.25336267396838 789.0461043098487 C143.89554435956694 789.0461043098487 144.50118865327448 789.288695540664 145.14226320917436 789.5456222910101 C149.06953629216406 791.3540346192347 153.71428274372585 790.5314290253622 156.740287313072 787.5188772240871 C160.73288527195314 783.5403677884556 160.73288527195314 777.0686757359222 156.740287313072 773.0923725737631 C154.80709842216675 771.1670740222519 152.2361574203752 770.1073882804603 149.49913429277308 770.1073882804603 Z M153.869180589357 779.659668407956 C154.4803605315578 779.659668407956 154.97639053775694 780.1525707235241 154.97639053775694 780.7623592623789 C154.97639053775694 781.3721467496258 154.4803605315578 781.8650501168019 153.869180589357 781.8650501168019 C153.25800170307386 781.8650501168019 152.75754212216242 781.3721467496258 152.75754212216242 780.7623592623789 C152.75754212216242 780.1525707235241 153.24803595190943 779.659668407956 153.85921589411026 779.659668407956 L153.869180589357 779.659668407956 Z M149.4305978432255 779.659668407956 C150.04177778542632 779.659668407956 150.53780779162545 780.1525707235241 150.53780779162545 780.7623592623789 C150.53780779162545 781.3721467496258 150.04177778542632 781.8650501168019 149.4305978432255 781.8650501168019 C148.8194179010247 781.8650501168019 148.31895937603093 781.3721467496258 148.31895937603093 780.7623592623789 C148.31895937603093 780.1525707235241 148.80834554812046 779.659668407956 149.42063314797878 779.659668407956 L149.4305978432255 779.659668407956 Z M144.99157161166394 779.659668407956 C145.60275155386478 779.659668407956 146.09878156006388 780.1525707235241 146.09878156006388 780.7623592623789 C146.09878156006388 781.3721467496258 145.60275155386478 781.8650501168019 144.99157161166394 781.8650501168019 C144.38039166946314 781.8650501168019 143.8799331444694 781.3721467496258 143.8799331444694 780.7623592623789 C143.8799331444694 780.1525707235241 144.3704269742164 779.659668407956 144.9816069164172 779.659668407956 L144.99157161166394 779.659668407956 Z "></path>
    </defs>
    <g style="mix-blend-mode:normal">
      <use xmlns:xlink="http://www.w3.org/1999/xlink" xlink:href="#s-Path_3-a9043" fill="#000000" fill-opacity="1.0"></use>
    </g>
  </g>
</svg>
