<?xml version="1.0" encoding="UTF-8"?>
<svg xmlns="http://www.w3.org/2000/svg" width="29.729984283447266" height="20.888488769531023" viewBox="322.7366860619686 61.000000000000256 29.729984283447266 20.888488769531023" preserveAspectRatio="none">
  <g>
    <defs>
      <path id="s-Path_50-a9043" d="M350.95833149525873 70.00000000000043 L324.2450237060681 70.00000000000043 C323.4119688609058 70.00000000000043 322.7366860619686 70.64658806314765 322.7366860619686 71.44424397808669 C322.7366860619686 72.24189989302579 323.4119688609058 72.88848795617301 324.2450237060681 72.88848795617301 L350.95833149525873 72.88848795617301 C351.791386340421 72.88848795617301 352.4666691393582 72.24189989302579 352.4666691393582 71.44424397808669 C352.4666691393582 70.64658806314765 351.79138562118953 70.00000000000043 350.95833149525873 70.00000000000043 Z "></path>
      <path id="s-Path_51-a9043" d="M350.95833149525873 61.000000000000256 L324.2450237060681 61.000000000000256 C323.4119688609058 61.000000000000256 322.7366860619686 61.646588200881325 322.7366860619686 62.44424397808653 C322.7366860619686 63.24189975529178 323.4119688609058 63.88848795617284 324.2450237060681 63.88848795617284 L350.95833149525873 63.88848795617284 C351.791386340421 63.88848795617284 352.4666691393582 63.24189989302562 352.4666691393582 62.44424397808653 C352.4666691393582 61.646588063147476 351.79138562118953 61.000000000000256 350.95833149525873 61.000000000000256 Z "></path>
      <path id="s-Path_52-a9043" d="M342.07487088370226 79.0 L338.52333671242684 79.0 C337.69028186726456 79.0 337.01499906832737 79.64658806314725 337.01499906832737 80.44424397808632 C337.01499906832737 81.24189989302539 337.69028186726456 81.88848795617258 338.52333671242684 81.88848795617258 L350.95833149525845 81.88848795617258 C351.7913863404207 81.88848795617258 352.46666913935786 81.24189989302539 352.46666913935786 80.44424397808632 C352.46666913935786 79.64658875181641 351.79138562118925 79.0 350.95833149525845 79.0 Z "></path>
    </defs>
    <g style="mix-blend-mode:normal">
      <use xmlns:xlink="http://www.w3.org/1999/xlink" xlink:href="#s-Path_50-a9043" fill="#000000" fill-opacity="1.0"></use>
    </g>
    <g style="mix-blend-mode:normal">
      <use xmlns:xlink="http://www.w3.org/1999/xlink" xlink:href="#s-Path_51-a9043" fill="#000000" fill-opacity="1.0"></use>
    </g>
    <g style="mix-blend-mode:normal">
      <use xmlns:xlink="http://www.w3.org/1999/xlink" xlink:href="#s-Path_52-a9043" fill="#000000" fill-opacity="1.0"></use>
    </g>
  </g>
</svg>
