<?xml version="1.0" encoding="UTF-8"?>
<svg xmlns="http://www.w3.org/2000/svg" width="18.94000244140625" height="23.6082763671875" viewBox="312.1549987792969 768.6997070312502 18.94000244140625 23.6082763671875" preserveAspectRatio="none">
  <g>
    <defs>
      <path id="s-Path_1-a9043" d="M321.4950256347656 770.1282958984377 C324.1864318847656 770.1282958984377 326.3687438964844 772.3104248046877 326.3687438964844 775.0030517578127 C326.3687438964844 777.6958007812502 324.1863098144531 779.8787231445315 321.4950256347656 779.8787231445315 L321.4576110839844 779.8787231445315 C318.7770080566406 779.8691406250002 316.6097106933594 777.6870727539065 316.6193542480469 775.0056152343752 L316.6193542480469 775.0030517578127 C316.6193542480469 772.3106689453127 318.8023986816406 770.1282958984377 321.4950256347656 770.1282958984377 Z M321.4950256347656 768.6997070312502 C318.0145568847656 768.6997070312502 315.1921691894531 771.519958496094 315.1907653808594 775.0004882812502 C315.1783142089844 778.4710083007815 317.9830627441406 781.2949218750002 321.4524841308594 781.307312011719 L321.4950256347656 781.307312011719 C324.9757385253906 781.307312011719 327.7973327636719 778.4842529296877 327.7973327636719 775.0030517578127 C327.7973327636719 771.5216064453127 324.9756164550781 768.6997070312502 321.4950256347656 768.6997070312502 Z M321.6260070800781 785.164001464844 C326.7109680175781 785.164001464844 329.5950012207031 786.0454101562502 329.5950012207031 787.9990234375002 C329.5950012207031 789.9498291015627 326.6930847167969 790.8079833984377 321.6260070800781 790.8079833984377 C316.5396423339844 790.8079833984377 313.6549987792969 789.928405761719 313.6549987792969 787.9730224609377 C313.6549987792969 786.0213012695315 316.5576477050781 785.164001464844 321.6260070800781 785.164001464844 Z M321.6260070800781 783.664001464844 C317.2862854003906 783.664001464844 312.1549987792969 784.228698730469 312.1549987792969 787.9730224609377 C312.1549987792969 791.7156372070315 317.2522888183594 792.3079833984377 321.6260070800781 792.3079833984377 C325.9649353027344 792.3079833984377 331.0950012207031 791.7421875000002 331.0950012207031 787.9990234375002 C331.0950012207031 784.2585449218752 325.9990539550781 783.664001464844 321.6260070800781 783.664001464844 Z "></path>
    </defs>
    <g style="mix-blend-mode:normal">
      <use xmlns:xlink="http://www.w3.org/1999/xlink" xlink:href="#s-Path_1-a9043" fill="#000000" fill-opacity="1.0"></use>
    </g>
  </g>
</svg>
