<?xml version="1.0" standalone="no"?>
<!DOCTYPE svg PUBLIC "-//W3C//DTD SVG 20010904//EN"
 "http://www.w3.org/TR/2001/REC-SVG-20010904/DTD/svg10.dtd">
<svg version="1.0" xmlns="http://www.w3.org/2000/svg"
 width="512.000000pt" height="512.000000pt" viewBox="0 0 512.000000 512.000000"
 preserveAspectRatio="xMidYMid meet">

<g transform="translate(0.000000,512.000000) scale(0.100000,-0.100000)"
fill="#000000" stroke="none">
<path d="M285 4911 c-11 -5 -33 -23 -50 -41 -27 -28 -30 -38 -30 -96 l0 -64
1075 -1075 1075 -1075 -1075 -1075 -1075 -1075 0 -65 c0 -61 2 -67 38 -102 35
-36 41 -38 102 -38 l65 0 1075 1075 1075 1075 1075 -1075 1075 -1075 65 0 c61
0 67 2 102 38 36 35 38 41 38 102 l0 65 -1075 1075 -1075 1075 1075 1075 1075
1075 0 65 c0 61 -2 67 -38 102 -35 36 -41 38 -102 38 l-65 0 -1075 -1075
-1075 -1075 -1074 1074 -1074 1074 -54 4 c-29 1 -62 -1 -73 -6z"/>
</g>
</svg>
