<?xml version="1.0" standalone="no"?>
<!DOCTYPE svg PUBLIC "-//W3C//DTD SVG 20010904//EN"
 "http://www.w3.org/TR/2001/REC-SVG-20010904/DTD/svg10.dtd">
<svg version="1.0" xmlns="http://www.w3.org/2000/svg"
 width="860.000000pt" height="980.000000pt" viewBox="0 0 860.000000 980.000000"
 preserveAspectRatio="xMidYMid meet">

<g transform="translate(0.000000,980.000000) scale(0.100000,-0.100000)"
fill="#000000" stroke="none">
<path d="M4182 9558 l-242 -243 902 -902 903 -903 -1061 0 c-1086 0 -1206 -3
-1469 -41 -1496 -213 -2737 -1340 -3100 -2814 -120 -487 -140 -1043 -55 -1543
152 -890 645 -1719 1360 -2291 592 -472 1304 -751 2069 -811 89 -6 983 -10
2623 -10 l2488 0 0 340 0 339 -2547 4 c-2803 3 -2600 -1 -2913 63 -1185 244
-2130 1180 -2384 2364 -52 240 -61 335 -61 645 0 310 9 405 61 645 178 830
704 1560 1436 1996 414 246 867 388 1353 424 83 6 561 10 1170 10 l1030 0
-898 -898 c-493 -493 -897 -902 -897 -907 0 -6 107 -117 238 -248 l237 -237
1315 1315 1315 1315 -1315 1315 -1315 1315 -243 -242z"/>
</g>
</svg>
