<?xml version="1.0" standalone="no"?>
<!DOCTYPE svg PUBLIC "-//W3C//DTD SVG 20010904//EN"
 "http://www.w3.org/TR/2001/REC-SVG-20010904/DTD/svg10.dtd">
<svg version="1.0" xmlns="http://www.w3.org/2000/svg"
 width="512.000000pt" height="512.000000pt" viewBox="0 0 512.000000 512.000000"
 preserveAspectRatio="xMidYMid meet">

<g transform="translate(0.000000,512.000000) scale(0.100000,-0.100000)"
fill="#000000" stroke="none">
<path d="M2270 4835 c-769 -103 -1429 -575 -1765 -1260 -107 -220 -171 -417
-212 -663 -26 -152 -26 -552 0 -704 83 -495 303 -926 647 -1268 327 -326 729
-541 1175 -629 333 -65 706 -53 1039 34 524 137 1004 481 1312 942 428 640
505 1467 203 2170 -308 720 -948 1227 -1719 1363 -161 29 -520 36 -680 15z
m790 -1065 c32 -17 72 -70 80 -106 21 -89 31 -77 -503 -611 l-492 -493 492
-492 c422 -424 493 -499 502 -533 30 -118 -76 -224 -194 -194 -35 9 -117 88
-607 577 -500 501 -568 571 -573 605 -17 93 -41 64 569 675 442 443 570 566
601 577 39 14 93 11 125 -5z"/>
</g>
</svg>
