<?xml version="1.0" standalone="no"?>
<!DOCTYPE svg PUBLIC "-//W3C//DTD SVG 20010904//EN"
 "http://www.w3.org/TR/2001/REC-SVG-20010904/DTD/svg10.dtd">
<svg version="1.0" xmlns="http://www.w3.org/2000/svg"
 width="320.000000pt" height="320.000000pt" viewBox="0 0 320.000000 320.000000"
 preserveAspectRatio="xMidYMid meet">

<g transform="translate(0.000000,320.000000) scale(0.100000,-0.100000)"
fill="#000000" stroke="none">
<path d="M1483 3185 c-167 -45 -302 -180 -345 -344 -15 -59 -17 -132 -17 -657
-1 -354 3 -613 9 -645 22 -121 113 -253 220 -321 142 -91 358 -90 502 1 106
67 196 199 218 320 6 32 10 292 10 640 0 636 -2 656 -56 763 -34 67 -135 168
-202 202 -108 55 -232 69 -339 41z"/>
<path d="M626 1923 c-9 -29 3 -503 14 -565 28 -155 118 -325 232 -439 139
-139 300 -221 489 -251 l79 -12 0 -168 0 -168 -245 0 -245 0 0 -160 0 -160
650 0 650 0 0 160 0 160 -245 0 -245 0 0 169 0 168 62 7 c75 9 204 49 278 86
232 117 415 360 459 608 12 65 13 118 12 390 l-1 192 -160 0 -160 0 0 -248 c0
-190 -4 -261 -15 -307 -49 -187 -206 -340 -400 -390 -82 -21 -387 -21 -470 0
-193 49 -351 204 -400 390 -11 46 -15 117 -15 307 l0 248 -159 0 c-143 0 -160
-2 -165 -17z"/>
</g>
</svg>
