<?xml version="1.0" standalone="no"?>
<!DOCTYPE svg PUBLIC "-//W3C//DTD SVG 20010904//EN"
 "http://www.w3.org/TR/2001/REC-SVG-20010904/DTD/svg10.dtd">
<svg version="1.0" xmlns="http://www.w3.org/2000/svg"
 width="640.000000pt" height="500.000000pt" viewBox="0 0 640.000000 500.000000"
 preserveAspectRatio="xMidYMid meet">

<g transform="translate(0.000000,500.000000) scale(0.100000,-0.100000)"
fill="#000000" stroke="none">
<path d="M3725 4981 c-22 -10 -48 -28 -58 -39 -44 -49 -46 -72 -47 -577 l0
-480 -142 -44 c-451 -139 -962 -342 -1288 -513 -1078 -563 -1628 -1275 -2053
-2653 -105 -338 -140 -474 -134 -518 7 -52 47 -110 90 -130 45 -22 119 -22
160 -1 18 9 86 69 152 133 631 611 1407 1012 2230 1151 268 45 603 67 839 55
l146 -7 0 -467 c1 -490 3 -514 47 -563 25 -29 91 -58 133 -58 20 0 51 8 71 18
32 16 436 377 1594 1421 805 727 901 817 919 861 21 54 21 100 0 100 -13 0
-14 3 -5 13 8 10 1 23 -30 53 -23 21 -53 55 -68 74 -34 46 -69 78 -1320 1204
-585 527 -1079 965 -1097 972 -45 19 -91 17 -139 -5z"/>
</g>
</svg>
